<svg xmlns="http://www.w3.org/2000/svg" viewBox="0 0 503.17 536.13"><defs><style>.cls-1{fill:#01669e;}.cls-2{fill:#050608;}.cls-3{fill:#040507;}.cls-4{fill:#050507;}.cls-5{fill:#030406;}</style></defs><title>Varlık 6system12931</title><g id="katman_2" data-name="katman 2"><g id="katman_2-2" data-name="katman 2"><path class="cls-1" d="M503.17,147V415.6a40.18,40.18,0,0,1-2,13.88,34.14,34.14,0,0,1-15,18.27,34.53,34.53,0,0,1-18,4.75q-216.93,0-433.85,0a34.15,34.15,0,0,1-31.41-20.9A33.85,33.85,0,0,1,.11,418.11q0-50.88,0-101.75c0-1.91,0-3.84-.11-5.75-.08-1.21.37-1.61,1.48-1.51.32,0,.64,0,1,0q92.15,0,184.3,0c6.5,0,13-.39,19.52-.85a127.51,127.51,0,0,0,18.38-2.62,52.56,52.56,0,0,0,24.16-11.82c8-7.05,13.29-15.79,17-25.61,3.06-8,4.49-16.42,5.29-24.93.21-2.22.18-4.47.18-6.71,0-18.71-.05-37.43.06-56.15a74.55,74.55,0,0,1,.88-13.1c1.28-6.93,5.25-12,11.35-15.46a35.58,35.58,0,0,1,13.39-4,68.58,68.58,0,0,1,8.36-.49q97.06,0,194.13,0A10.3,10.3,0,0,0,503.17,147Z"/><path class="cls-1" d="M251.53,0H467.26c10.88,0,20.14,3.8,27.39,12a33.85,33.85,0,0,1,8.05,17.6,38.48,38.48,0,0,1,.32,6q0,32.63,0,65.27c0,3,.29,2.68-2.71,2.68H320.57c-7.12,0-14.25-.11-21.35.2-10.11.44-20.22,1-30.09,3.56a52.19,52.19,0,0,0-26.85,16.63c-8,9.21-12.77,20-15.16,31.85a105.07,105.07,0,0,0-2,21.39c0,13.67,0,27.35,0,41,0,6.72-.19,13.42-.56,20.12a35.81,35.81,0,0,1-1.61,9.87c-2.48,7.17-7.57,11.68-14.49,14.29A45.88,45.88,0,0,1,195.84,265c-4.63.38-9.26.25-13.88.25q-89.4,0-178.78,0c-3.49,0-3,.44-3-3.06q0-114,0-228A34.26,34.26,0,0,1,31.28.28C33.91.06,36.53,0,39.16,0Z"/><path class="cls-2" d="M443.85,526.3c2.26-5.56,4.35-10.72,6.45-15.88q6.27-15.39,12.5-30.79a2.27,2.27,0,0,1,2.43-1.73c3,.06,6.07.05,9.11,0,1.07,0,1.35.41,1.34,1.41-.06,2.88,0,5.76,0,8.64v44.14c0,.56,0,1.12,0,1.67.07.89-.23,1.32-1.2,1.31-2.16-.05-4.32,0-6.48,0-.73,0-1-.33-1-1s0-1.12,0-1.68V488.74c-1,.34-.95,1.09-1.17,1.62q-8.62,20.88-17.19,41.78a13.35,13.35,0,0,0-.73,1.76c-.25,1-.86,1.2-1.77,1.17a36.7,36.7,0,0,0-5,0c-1.53.17-2.12-.58-2.6-1.79-1.81-4.6-3.65-9.18-5.48-13.77q-5.82-14.53-11.66-29.07a6.72,6.72,0,0,0-1.3-2.11c0,.73-.09,1.45-.09,2.18v42.7c0,1.79,0,1.8-1.86,1.82s-3.84,0-5.76,0c-1.06,0-1.46-.38-1.36-1.4,0-.48,0-1,0-1.44q0-25.31,0-50.61c0-3.7,0-3.7,3.54-3.7,2.8,0,5.61.08,8.4,0a2.12,2.12,0,0,1,2.41,1.66c2.15,5.58,4.4,11.12,6.6,16.68q5.57,14.11,11.1,28.25C443.26,525,443.5,525.48,443.85,526.3Z"/><path class="cls-3" d="M333.09,506.37q0-13.2,0-26.4c0-2.19-.11-2.05,2.11-2.05h44.64c2.21,0,2.21,0,2.22,2.22,0,1,0,1.92,0,2.88,0,1.76,0,1.78-1.88,1.78h-34.8a13.44,13.44,0,0,1-1.68,0c-1.17-.15-1.52.35-1.5,1.49.06,3.36,0,6.72,0,10.08,0,1.44,0,2.88,0,4.32,0,1,.18,1.53,1.29,1.4a13.45,13.45,0,0,1,1.68,0h32.16c2,0,2,0,2,1.91,0,1.12,0,2.24,0,3.36,0,1.75,0,1.78-1.88,1.78q-15.6,0-31.2,0c-1.26,0-2.88-.56-3.69.24s-.32,2.57-.33,3.9c0,4.4,0,8.8,0,13.2,0,1.8,0,1.83,1.84,1.83h36.72c3.18,0,2.7-.32,2.7,2.63,0,1.27.55,2.86-.24,3.72s-2.57.36-3.9.36q-21.7,0-43.43,0c-.56,0-1.12,0-1.68,0-.81.06-1.19-.27-1.15-1.1,0-.63,0-1.28,0-1.92Z"/><path class="cls-3" d="M229.82,494.08c-2.55.45-5,.14-7.47.65-.79.17-1.16-.3-1.36-1,0-.08-.05-.15-.07-.23-1.21-6-5.46-8.49-11-9.31a33.7,33.7,0,0,0-13,.47,11.38,11.38,0,0,0-5,2.6c-3.87,3.49-3,8.73,1.71,10.87a49.66,49.66,0,0,0,10.57,2.94c4.44.92,8.92,1.68,13.28,2.93a26.23,26.23,0,0,1,10,5A13.27,13.27,0,0,1,229.2,527a19,19,0,0,1-8,6.26A32.8,32.8,0,0,1,208.46,536a50.86,50.86,0,0,1-14.23-1.38,22.73,22.73,0,0,1-11.66-6.68,17.18,17.18,0,0,1-4.39-9.87c-.1-1,0-1.63,1.3-1.63a25.88,25.88,0,0,0,6-.41,1,1,0,0,1,1.35.91c1.05,6.64,5.66,9.64,11.6,11.2a30.62,30.62,0,0,0,17.18-.34,11.58,11.58,0,0,0,6-3.79,6.79,6.79,0,0,0-1.38-10.08,16.52,16.52,0,0,0-6.31-2.76c-5.74-1.33-11.5-2.56-17.23-3.92a30.56,30.56,0,0,1-10.14-4.11c-7.65-5.11-7.52-14.65-1-20.43a22.25,22.25,0,0,1,11.48-5,41.59,41.59,0,0,1,21.21,1.58C224.63,481.62,229.31,486.66,229.82,494.08Z"/><path class="cls-4" d="M72.58,494.08c-2.58.48-4.92.13-7.19.63-.73.16-1.31,0-1.5-1-1-5.28-4.48-8.17-9.47-9.23a32.16,32.16,0,0,0-14.92.29,11,11,0,0,0-5,2.75c-3.47,3.34-2.86,8,1.37,10.37a23.48,23.48,0,0,0,4.94,1.77c5.07,1.41,10.29,2.12,15.41,3.34a39.45,39.45,0,0,1,10.58,3.63c3.86,2.18,6.7,5.13,7.66,9.59,1,4.76-.54,8.8-3.65,12.32A21.24,21.24,0,0,1,59.06,535a44.71,44.71,0,0,1-24.74-1.28c-6.47-2.26-11-6.55-12.86-13.38-.06-.23-.15-.46-.19-.69-.55-2.84-.41-2.94,2.54-3.18a22.86,22.86,0,0,0,4.51-.4c.78-.22,1.3.11,1.45,1.08.79,5.18,4,8.39,8.74,10.15A30.52,30.52,0,0,0,51.62,529,25.51,25.51,0,0,0,60,527.24a10.21,10.21,0,0,0,4.7-3.57,6.84,6.84,0,0,0-1.77-9.85,22.2,22.2,0,0,0-8.18-3.18c-5.13-1.16-10.28-2.21-15.39-3.4a30.7,30.7,0,0,1-10.1-4.17c-6.79-4.47-7.47-13.44-2-19.32a20.16,20.16,0,0,1,10.63-5.64,41.91,41.91,0,0,1,21,.46c4.81,1.37,9,3.76,11.63,8.2A12.48,12.48,0,0,1,72.58,494.08Z"/><path class="cls-2" d="M96,477.92c3,0,5.77,0,8.56,0a3.55,3.55,0,0,1,3.22,1.6c6.17,8.33,12.89,16.24,18.68,24.92.25-.14.51-.19.62-.35,5.77-8.34,12.29-16.1,18.39-24.19a4.41,4.41,0,0,1,4.23-2c2.07.14,4.16.07,6.24.1.37,0,.83-.1,1,.38s-.23.71-.47,1l-14.25,17.38c-3.48,4.25-6.9,8.56-10.46,12.75a4.89,4.89,0,0,0-1.24,3.45c0,6.47,0,12.95,0,19.43,0,.56,0,1.12,0,1.68s-.35,1-1,1h-7c-.69,0-1-.3-1-1s0-1.12,0-1.68c0-6.47,0-13,0-19.42a5.41,5.41,0,0,0-1.32-3.68q-11.72-14.67-23.34-29.42A2.56,2.56,0,0,1,96,477.92Z"/><path class="cls-5" d="M281.4,478.06h24.72c2,0,2,0,2,1.91,0,1.51.63,3.42-.25,4.42-1,1.15-3,.37-4.57.39-5.2.07-10.4,0-15.6,0-1.93,0-1.95,0-1.95,2q0,22.68,0,45.35c0,2.91,0,2.91-2.92,2.91-1.6,0-3.2,0-4.8,0-.84,0-1.15-.34-1.11-1.14,0-.56,0-1.12,0-1.68V488.09c0-.4,0-.8,0-1.2,0-2.22,0-2.09-2.1-2.08-6.16,0-12.32,0-18.48,0-1.79,0-1.86,0-1.79-1.85.06-1.57-.73-3.55.37-4.59s2.9-.28,4.41-.29C266.69,478,274.05,478.06,281.4,478.06Z"/></g></g></svg>